<svg width="20" height="20" viewBox="0 0 20 20" fill="none" xmlns="http://www.w3.org/2000/svg">
<g clip-path="url(#clip0_75_210)">
<path d="M12.001 9.55C12.918 8.613 14.112 8 15.501 8C16.9597 8 18.3586 8.57946 19.3901 9.61091C20.4215 10.6424 21.001 12.0413 21.001 13.5V21H19.001V13.5C19.001 12.5717 18.6322 11.6815 17.9759 11.0251C17.3195 10.3687 16.4292 10 15.501 10C14.5727 10 13.6825 10.3687 13.0261 11.0251C12.3697 11.6815 12.001 12.5717 12.001 13.5V21H10.001V8.5H12.001V9.55ZM5.00098 6.5C4.60315 6.5 4.22162 6.34196 3.94032 6.06066C3.65901 5.77936 3.50098 5.39782 3.50098 5C3.50098 4.60218 3.65901 4.22064 3.94032 3.93934C4.22162 3.65804 4.60315 3.5 5.00098 3.5C5.3988 3.5 5.78033 3.65804 6.06164 3.93934C6.34294 4.22064 6.50098 4.60218 6.50098 5C6.50098 5.39782 6.34294 5.77936 6.06164 6.06066C5.78033 6.34196 5.3988 6.5 5.00098 6.5ZM4.00098 8.5H6.00098V21H4.00098V8.5Z" fill="url(#paint0_radial_75_210)"/>
<path fill-rule="evenodd" clip-rule="evenodd" d="M7.85734 7.474H10.9523V9.01567C11.3982 8.129 12.5415 7.33234 14.259 7.33234C17.5515 7.33234 18.3332 9.09734 18.3332 12.3357V18.3332H14.9998V13.0732C14.9998 11.229 14.554 10.189 13.419 10.189C11.8448 10.189 11.1907 11.3098 11.1907 13.0723V18.3332H7.85734V7.474ZM2.1415 18.1915H5.47484V7.33234H2.1415V18.1915ZM5.95234 3.7915C5.95246 4.0709 5.89705 4.34753 5.78933 4.60533C5.6816 4.86312 5.52371 5.09693 5.32484 5.29317C4.92184 5.69369 4.37635 5.91788 3.80817 5.9165C3.241 5.91612 2.69676 5.6925 2.29317 5.294C2.09501 5.0971 1.93766 4.86302 1.83012 4.6052C1.72259 4.34737 1.66699 4.07086 1.6665 3.7915C1.6665 3.22734 1.8915 2.68734 2.294 2.289C2.69724 1.88997 3.2417 1.66625 3.809 1.6665C4.37734 1.6665 4.92234 1.89067 5.32484 2.289C5.7265 2.68734 5.95234 3.22734 5.95234 3.7915Z" fill="white"/>
</g>
<defs>
<radialGradient id="paint0_radial_75_210" cx="0" cy="0" r="1" gradientUnits="userSpaceOnUse" gradientTransform="translate(12.251 12.25) rotate(90) scale(8.75)">
<stop stop-color="#312929"/>
<stop offset="1" stop-color="#070606"/>
</radialGradient>
<clipPath id="clip0_75_210">
<rect width="20" height="20" fill="white"/>
</clipPath>
</defs>
</svg>
